<svg viewBox="0 0 1600 1000" xmlns="http://www.w3.org/2000/svg" role="img" aria-label="DC Oversizing in Solar">
  <defs>
    <linearGradient id="bg" x1="0" y1="0" x2="1" y2="1">
      <stop offset="0%" stop-color="#0f172a"/>
      <stop offset="55%" stop-color="#064e3b"/>
      <stop offset="100%" stop-color="#049D65"/>
    </linearGradient>
    <pattern id="dots" width="40" height="40" patternUnits="userSpaceOnUse">
      <circle cx="20" cy="20" r="1.4" fill="#ffffff" opacity="0.15"/>
    </pattern>
    <linearGradient id="accent" x1="0" y1="0" x2="1" y2="0">
      <stop offset="0%" stop-color="#fbbf24"/>
      <stop offset="100%" stop-color="#F69133"/>
    </linearGradient>
  </defs>
  <rect width="1600" height="1000" fill="url(#bg)"/>
  <rect width="1600" height="1000" fill="url(#dots)"/>
  <circle cx="1380" cy="180" r="280" fill="#fbbf24" opacity="0.10"/>
  <circle cx="180" cy="900" r="220" fill="#34d399" opacity="0.12"/>
  <g transform="translate(1180 580)" opacity="0.95">
    <path d="M0,260 Q40,180 80,200 T160,80 T280,40 L280,260 Z" fill="#34d399" opacity="0.35"/>
    <path d="M0,260 Q40,180 80,200 T160,80 T280,40" stroke="#34d399" stroke-width="6" fill="none"/>
    <line x1="0" y1="80" x2="280" y2="80" stroke="#fbbf24" stroke-width="3" stroke-dasharray="8 6" opacity="0.7"/>
    <text x="290" y="85" font-family="Inter,sans-serif" font-size="20" fill="#fbbf24" font-weight="700">100% AC</text>
    <text x="140" y="300" font-family="Inter,sans-serif" font-size="20" fill="#ffffff" opacity="0.7" text-anchor="middle">Extended generation</text>
  </g>
  <g transform="translate(110 360)">
    <rect width="260" height="56" rx="28" fill="#ffffff" fill-opacity="0.10" stroke="#34d399" stroke-opacity="0.5"/>
    <text x="130" y="36" font-family="Inter,system-ui,sans-serif" font-size="20" font-weight="700" fill="#34d399" text-anchor="middle" letter-spacing="4">TECHNOLOGY</text>
  </g>
  <text x="110" y="540" font-family="Inter,system-ui,sans-serif" font-size="108" font-weight="800" fill="#ffffff" letter-spacing="-2">DC Oversizing</text>
  <text x="110" y="650" font-family="Inter,system-ui,sans-serif" font-size="108" font-weight="800" fill="#ffffff" letter-spacing="-2">in Solar</text>
  <text x="110" y="730" font-family="Inter,system-ui,sans-serif" font-size="40" font-weight="500" fill="url(#accent)">Complete FAQ Guide for Maximum ROI</text>
  <text x="110" y="900" font-family="Inter,system-ui,sans-serif" font-size="26" font-weight="800" fill="#34d399" letter-spacing="6">QBITS ENERGY</text>
</svg>
